<svg width="25" height="25" viewBox="0 0 25 25" fill="none" xmlns="http://www.w3.org/2000/svg">
<path fill-rule="evenodd" clip-rule="evenodd" d="M5.20837 5.20833C4.63308 5.20833 4.16671 5.6747 4.16671 6.25V16.6667C4.16671 18.3926 5.56582 19.7917 7.29171 19.7917H17.7084C19.4343 19.7917 20.8334 18.3926 20.8334 16.6667V11.4583C20.8334 9.73244 19.4343 8.33333 17.7084 8.33333H13.615C12.5702 8.33333 11.5944 7.81114 11.0148 6.94177L10.1685 5.67219C9.97527 5.3824 9.65002 5.20833 9.30174 5.20833H5.20837ZM2.08337 6.25C2.08337 4.52411 3.48248 3.125 5.20837 3.125H9.30174C10.3466 3.125 11.3223 3.64719 11.9019 4.51656L12.7483 5.78615C12.9415 6.07594 13.2667 6.25 13.615 6.25H17.7084C20.5849 6.25 22.9167 8.58185 22.9167 11.4583V16.6667C22.9167 19.5431 20.5849 21.875 17.7084 21.875H7.29171C4.41522 21.875 2.08337 19.5431 2.08337 16.6667V6.25Z" fill="#567176"/>
</svg>
