<svg width="25" height="25" viewBox="0 0 25 25" fill="none" xmlns="http://www.w3.org/2000/svg">
<path d="M22.9167 17.4375V4.86456C22.9167 3.61456 21.8958 2.68747 20.6562 2.79164H20.5937C18.4062 2.97914 15.0833 4.09372 13.2292 5.26039L13.0521 5.37497C12.75 5.56247 12.25 5.56247 11.9479 5.37497L11.6875 5.21872C9.83333 4.06247 6.52083 2.95831 4.33333 2.78122C3.09374 2.67706 2.08333 3.61456 2.08333 4.85414V17.4375C2.08333 18.4375 2.89583 19.375 3.89583 19.5L4.19791 19.5416C6.45833 19.8437 9.94791 20.9896 11.9479 22.0833L11.9896 22.1041C12.2708 22.2604 12.7187 22.2604 12.9896 22.1041C14.9896 21 18.4896 19.8437 20.7604 19.5416L21.1042 19.5C22.1042 19.375 22.9167 18.4375 22.9167 17.4375Z" stroke="black" stroke-width="1.5" stroke-linecap="round" stroke-linejoin="round"/>
<path d="M12.5 5.71875V21.3437" stroke="black" stroke-width="1.5" stroke-linecap="round" stroke-linejoin="round"/>
<path d="M8.07292 8.84375H5.72917" stroke="black" stroke-width="1.5" stroke-linecap="round" stroke-linejoin="round"/>
<path d="M8.85417 11.9688H5.72917" stroke="black" stroke-width="1.5" stroke-linecap="round" stroke-linejoin="round"/>
</svg>
