<svg width="25" height="25" viewBox="0 0 25 25" fill="none" xmlns="http://www.w3.org/2000/svg">
<path d="M16.2396 12.7708C19.1909 12.7708 21.5833 10.3783 21.5833 7.42707C21.5833 4.4758 19.1909 2.08331 16.2396 2.08331C13.2883 2.08331 10.8958 4.4758 10.8958 7.42707C10.8958 10.3783 13.2883 12.7708 16.2396 12.7708Z" stroke="black" stroke-width="1.5" stroke-miterlimit="10"/>
<path d="M6.62499 20.25C8.3969 20.25 9.83334 18.8136 9.83334 17.0416C9.83334 15.2697 8.3969 13.8333 6.62499 13.8333C4.85308 13.8333 3.41667 15.2697 3.41667 17.0416C3.41667 18.8136 4.85308 20.25 6.62499 20.25Z" stroke="black" stroke-width="1.5" stroke-miterlimit="10"/>
<path d="M17.3125 22.9166C18.7853 22.9166 19.9792 21.7227 19.9792 20.25C19.9792 18.7772 18.7853 17.5833 17.3125 17.5833C15.8397 17.5833 14.6458 18.7772 14.6458 20.25C14.6458 21.7227 15.8397 22.9166 17.3125 22.9166Z" stroke="black" stroke-width="1.5" stroke-miterlimit="10"/>
</svg>
