<svg width="25" height="25" viewBox="0 0 25 25" fill="none" xmlns="http://www.w3.org/2000/svg">
<path d="M18.75 7.45832C18.6875 7.4479 18.6146 7.4479 18.5521 7.45832C17.1146 7.40623 15.9688 6.22915 15.9688 4.77081C15.9688 3.28123 17.1667 2.08331 18.6562 2.08331C20.1458 2.08331 21.3437 3.29165 21.3437 4.77081C21.3333 6.22915 20.1875 7.40623 18.75 7.45832Z" stroke="black" stroke-width="1.5" stroke-linecap="round" stroke-linejoin="round"/>
<path d="M17.6771 15.0416C19.1042 15.2812 20.6771 15.0312 21.7813 14.2916C23.25 13.3125 23.25 11.7083 21.7813 10.7291C20.6667 9.98955 19.0729 9.73954 17.6458 9.98954" stroke="black" stroke-width="1.5" stroke-linecap="round" stroke-linejoin="round"/>
<path d="M6.21875 7.45832C6.28125 7.4479 6.35417 7.4479 6.41667 7.45832C7.85417 7.40623 9 6.22915 9 4.77081C9 3.28123 7.80209 2.08331 6.3125 2.08331C4.82292 2.08331 3.625 3.29165 3.625 4.77081C3.63542 6.22915 4.78125 7.40623 6.21875 7.45832Z" stroke="black" stroke-width="1.5" stroke-linecap="round" stroke-linejoin="round"/>
<path d="M7.29167 15.0416C5.86458 15.2812 4.29167 15.0312 3.1875 14.2916C1.71875 13.3125 1.71875 11.7083 3.1875 10.7291C4.30208 9.98955 5.89583 9.73954 7.32291 9.98954" stroke="black" stroke-width="1.5" stroke-linecap="round" stroke-linejoin="round"/>
<path d="M12.5 15.2396C12.4375 15.2291 12.3646 15.2291 12.3021 15.2396C10.8646 15.1875 9.71875 14.0104 9.71875 12.5521C9.71875 11.0625 10.9167 9.86456 12.4062 9.86456C13.8958 9.86456 15.0938 11.0729 15.0938 12.5521C15.0833 14.0104 13.9375 15.1979 12.5 15.2396Z" stroke="black" stroke-width="1.5" stroke-linecap="round" stroke-linejoin="round"/>
<path d="M9.46875 18.5208C8 19.5 8 21.1041 9.46875 22.0833C11.1354 23.1979 13.8646 23.1979 15.5312 22.0833C17 21.1041 17 19.5 15.5312 18.5208C13.875 17.4166 11.1354 17.4166 9.46875 18.5208Z" stroke="black" stroke-width="1.5" stroke-linecap="round" stroke-linejoin="round"/>
</svg>
