<svg width="60" height="60" viewBox="0 0 60 60" fill="none" xmlns="http://www.w3.org/2000/svg">
<rect x="10" y="10" width="40" height="40" rx="20" fill="#567176"/>
<path fill-rule="evenodd" clip-rule="evenodd" d="M36.0002 26C36.0002 29.3137 33.314 32 30.0002 32C26.6865 32 24.0002 29.3137 24.0002 26C24.0002 22.6863 26.6865 20 30.0002 20C33.314 20 36.0002 22.6863 36.0002 26ZM34.0002 26C34.0002 28.2091 32.2094 30 30.0002 30C27.7911 30 26.0002 28.2091 26.0002 26C26.0002 23.7909 27.7911 22 30.0002 22C32.2094 22 34.0002 23.7909 34.0002 26Z" fill="white"/>
<path d="M30.0002 35C23.5259 35 18.0095 38.8284 15.9082 44.192C16.4201 44.7004 16.9593 45.1812 17.5235 45.6321C19.0883 40.7077 23.997 37 30.0002 37C36.0035 37 40.9122 40.7077 42.477 45.6321C43.0412 45.1812 43.5804 44.7004 44.0923 44.1921C41.991 38.8284 36.4746 35 30.0002 35Z" fill="white"/>
</svg>
