<svg width="234" height="211" viewBox="0 0 234 211" fill="none" xmlns="http://www.w3.org/2000/svg">
<path d="M68.7348 56.1064L73.1156 75.1168L59.7631 89.6012L79.4307 91.4168L88.9132 108.45L96.5432 90.3516L115.825 86.5965L101.12 73.8041L103.361 54.1981L86.5281 64.2253L68.7348 56.1064Z" fill="white" stroke="white" stroke-width="4" stroke-linejoin="round"/>
<rect x="126.572" y="66.7855" width="9.01863" height="63.0004" rx="4.50931" transform="rotate(-108.067 126.572 66.7855)" fill="white"/>
<rect x="127.231" y="89.8998" width="9.01863" height="63.0004" rx="4.50931" transform="rotate(-84.5234 127.231 89.8998)" fill="white"/>
<rect x="116.594" y="104.965" width="9.01863" height="63.0004" rx="4.50931" transform="rotate(-57.8525 116.594 104.965)" fill="white"/>
<path d="M5.59475 189.512C4.57075 189.512 3.73875 189.277 3.09875 188.808C2.50142 188.339 2.13875 187.72 2.01075 186.952C1.88275 186.141 2.03208 185.245 2.45875 184.264L19.3548 146.824C19.9094 145.587 20.5708 144.712 21.3388 144.2C22.1494 143.645 23.0668 143.368 24.0908 143.368C25.0721 143.368 25.9468 143.645 26.7148 144.2C27.5254 144.712 28.2081 145.587 28.7628 146.824L45.7228 184.264C46.1921 185.245 46.3628 186.141 46.2348 186.952C46.1068 187.763 45.7441 188.403 45.1468 188.872C44.5494 189.299 43.7601 189.512 42.7788 189.512C41.5841 189.512 40.6454 189.235 39.9628 188.68C39.3228 188.083 38.7468 187.187 38.2348 185.992L34.0748 176.328L37.5308 178.568H10.5228L13.9788 176.328L9.88275 185.992C9.32808 187.229 8.75208 188.125 8.15475 188.68C7.55742 189.235 6.70408 189.512 5.59475 189.512ZM23.9628 152.776L15.0028 174.088L13.3388 172.04H34.7148L33.1147 174.088L24.0908 152.776H23.9628ZM66.1553 189.64C62.8699 189.64 60.0113 188.979 57.5793 187.656C55.1473 186.291 53.2699 184.371 51.9473 181.896C50.6246 179.421 49.9633 176.52 49.9633 173.192C49.9633 170.675 50.3259 168.435 51.0513 166.472C51.8193 164.467 52.9073 162.781 54.3153 161.416C55.7233 160.008 57.4299 158.941 59.4353 158.216C61.4406 157.448 63.6806 157.064 66.1553 157.064C67.5633 157.064 69.0779 157.256 70.6993 157.64C72.3633 158.024 73.9206 158.664 75.3713 159.56C76.0539 159.987 76.5019 160.499 76.7153 161.096C76.9286 161.693 76.9713 162.312 76.8433 162.952C76.7153 163.549 76.4379 164.083 76.0113 164.552C75.6273 164.979 75.1366 165.256 74.5393 165.384C73.9419 165.469 73.2806 165.32 72.5553 164.936C71.6166 164.381 70.6566 163.976 69.6753 163.72C68.6939 163.421 67.7553 163.272 66.8593 163.272C65.4513 163.272 64.2139 163.507 63.1473 163.976C62.0806 164.403 61.1633 165.043 60.3953 165.896C59.6699 166.707 59.1153 167.731 58.7313 168.968C58.3473 170.205 58.1553 171.635 58.1553 173.256C58.1553 176.413 58.9019 178.909 60.3953 180.744C61.9313 182.536 64.0859 183.432 66.8593 183.432C67.7553 183.432 68.6726 183.304 69.6113 183.048C70.5926 182.792 71.5739 182.387 72.5553 181.832C73.2806 181.448 73.9206 181.32 74.4753 181.448C75.0726 181.576 75.5633 181.875 75.9473 182.344C76.3313 182.771 76.5659 183.304 76.6513 183.944C76.7366 184.541 76.6513 185.139 76.3953 185.736C76.1819 186.333 75.7553 186.824 75.1153 187.208C73.7073 188.061 72.2139 188.68 70.6353 189.064C69.0566 189.448 67.5633 189.64 66.1553 189.64ZM85.8468 189.512C84.5668 189.512 83.5854 189.171 82.9028 188.488C82.2201 187.763 81.8788 186.739 81.8788 185.416V147.4C81.8788 146.077 82.2201 145.075 82.9028 144.392C83.5854 143.709 84.5668 143.368 85.8468 143.368C87.1268 143.368 88.1081 143.709 88.7908 144.392C89.5161 145.075 89.8788 146.077 89.8788 147.4V163.976H88.9828C89.9214 161.715 91.3721 160.008 93.3348 158.856C95.3401 157.661 97.6014 157.064 100.119 157.064C102.636 157.064 104.705 157.533 106.327 158.472C107.948 159.411 109.164 160.84 109.975 162.76C110.785 164.637 111.191 167.027 111.191 169.928V185.416C111.191 186.739 110.849 187.763 110.167 188.488C109.484 189.171 108.503 189.512 107.223 189.512C105.943 189.512 104.94 189.171 104.215 188.488C103.532 187.763 103.191 186.739 103.191 185.416V170.312C103.191 167.88 102.721 166.109 101.783 165C100.887 163.891 99.4788 163.336 97.5588 163.336C95.2121 163.336 93.3348 164.083 91.9268 165.576C90.5614 167.027 89.8788 168.968 89.8788 171.4V185.416C89.8788 188.147 88.5348 189.512 85.8468 189.512ZM123.284 189.448C122.004 189.448 121.023 189.064 120.34 188.296C119.658 187.528 119.316 186.461 119.316 185.096V161.608C119.316 160.2 119.658 159.133 120.34 158.408C121.023 157.64 122.004 157.256 123.284 157.256C124.564 157.256 125.546 157.64 126.228 158.408C126.954 159.133 127.316 160.2 127.316 161.608V185.096C127.316 186.461 126.975 187.528 126.292 188.296C125.61 189.064 124.607 189.448 123.284 189.448ZM123.284 151.304C121.791 151.304 120.618 150.941 119.764 150.216C118.954 149.448 118.548 148.403 118.548 147.08C118.548 145.715 118.954 144.669 119.764 143.944C120.618 143.219 121.791 142.856 123.284 142.856C124.82 142.856 125.994 143.219 126.804 143.944C127.615 144.669 128.02 145.715 128.02 147.08C128.02 148.403 127.615 149.448 126.804 150.216C125.994 150.941 124.82 151.304 123.284 151.304ZM151.053 189.64C147.511 189.64 144.461 188.979 141.901 187.656C139.341 186.333 137.357 184.456 135.949 182.024C134.583 179.592 133.901 176.712 133.901 173.384C133.901 170.141 134.562 167.304 135.885 164.872C137.25 162.44 139.106 160.541 141.453 159.176C143.842 157.768 146.551 157.064 149.581 157.064C151.799 157.064 153.783 157.427 155.533 158.152C157.325 158.877 158.839 159.923 160.077 161.288C161.357 162.653 162.317 164.317 162.957 166.28C163.639 168.2 163.981 170.376 163.981 172.808C163.981 173.576 163.703 174.173 163.149 174.6C162.637 174.984 161.89 175.176 160.909 175.176H140.365V170.568H158.349L157.325 171.528C157.325 169.565 157.026 167.923 156.429 166.6C155.874 165.277 155.042 164.275 153.933 163.592C152.866 162.867 151.522 162.504 149.901 162.504C148.109 162.504 146.573 162.931 145.293 163.784C144.055 164.595 143.095 165.768 142.413 167.304C141.773 168.797 141.453 170.589 141.453 172.68V173.128C141.453 176.627 142.263 179.251 143.885 181C145.549 182.707 147.981 183.56 151.181 183.56C152.29 183.56 153.527 183.432 154.893 183.176C156.301 182.877 157.623 182.387 158.861 181.704C159.757 181.192 160.546 180.979 161.229 181.064C161.911 181.107 162.445 181.341 162.829 181.768C163.255 182.195 163.511 182.728 163.597 183.368C163.682 183.965 163.554 184.584 163.213 185.224C162.914 185.864 162.381 186.419 161.613 186.888C160.119 187.827 158.391 188.531 156.429 189C154.509 189.427 152.717 189.64 151.053 189.64ZM182.488 189.512C181.422 189.512 180.483 189.235 179.672 188.68C178.904 188.125 178.264 187.272 177.752 186.12L167.576 162.504C167.192 161.565 167.043 160.691 167.128 159.88C167.256 159.069 167.64 158.429 168.28 157.96C168.963 157.448 169.88 157.192 171.032 157.192C172.014 157.192 172.803 157.427 173.4 157.896C173.998 158.323 174.531 159.155 175 160.392L183.64 181.96H181.72L190.616 160.328C191.086 159.133 191.619 158.323 192.216 157.896C192.856 157.427 193.71 157.192 194.776 157.192C195.715 157.192 196.462 157.448 197.016 157.96C197.571 158.429 197.912 159.069 198.04 159.88C198.168 160.648 198.019 161.501 197.592 162.44L187.224 186.12C186.755 187.272 186.115 188.125 185.304 188.68C184.536 189.235 183.598 189.512 182.488 189.512ZM213.245 189.64C210.984 189.64 208.957 189.213 207.165 188.36C205.416 187.464 204.029 186.269 203.005 184.776C202.024 183.283 201.533 181.597 201.533 179.72C201.533 177.416 202.131 175.603 203.325 174.28C204.52 172.915 206.461 171.933 209.149 171.336C211.837 170.739 215.443 170.44 219.965 170.44H223.165V175.048H220.029C217.384 175.048 215.272 175.176 213.693 175.432C212.115 175.688 210.984 176.136 210.301 176.776C209.661 177.373 209.341 178.227 209.341 179.336C209.341 180.744 209.832 181.896 210.813 182.792C211.795 183.688 213.16 184.136 214.909 184.136C216.317 184.136 217.555 183.816 218.621 183.176C219.731 182.493 220.605 181.576 221.245 180.424C221.885 179.272 222.205 177.949 222.205 176.456V169.096C222.205 166.963 221.736 165.427 220.797 164.488C219.859 163.549 218.28 163.08 216.061 163.08C214.824 163.08 213.48 163.229 212.029 163.528C210.621 163.827 209.128 164.339 207.549 165.064C206.739 165.448 206.013 165.555 205.373 165.384C204.776 165.213 204.307 164.872 203.965 164.36C203.624 163.805 203.453 163.208 203.453 162.568C203.453 161.928 203.624 161.309 203.965 160.712C204.307 160.072 204.883 159.603 205.693 159.304C207.656 158.493 209.533 157.917 211.325 157.576C213.16 157.235 214.824 157.064 216.317 157.064C219.389 157.064 221.907 157.533 223.869 158.472C225.875 159.411 227.368 160.84 228.349 162.76C229.331 164.637 229.821 167.069 229.821 170.056V185.416C229.821 186.739 229.501 187.763 228.861 188.488C228.221 189.171 227.304 189.512 226.109 189.512C224.915 189.512 223.976 189.171 223.293 188.488C222.653 187.763 222.333 186.739 222.333 185.416V182.344H222.845C222.547 183.837 221.949 185.139 221.053 186.248C220.2 187.315 219.112 188.147 217.789 188.744C216.467 189.341 214.952 189.64 213.245 189.64Z" fill="white"/>
</svg>
